<svg width="410" height="81" viewBox="0 0 410 81" fill="none" xmlns="http://www.w3.org/2000/svg">
<g clip-path="url(#clip0_1_24)">
<path d="M26.9573 58.315C27.8312 59.178 29.012 59.658 30.24 59.65V59.63H42.82C44.216 59.456 45.507 58.797 46.467 57.768C47.427 56.739 47.994 55.405 48.07 54V35.88C48.07 34.66 47.585 33.49 46.723 32.627C45.86 31.765 44.69 31.28 43.47 31.28C42.25 31.28 41.08 31.765 40.217 32.627C39.355 33.49 38.87 34.66 38.87 35.88V47.39C38.87 48.186 38.554 48.949 37.991 49.511C37.429 50.074 36.666 50.39 35.87 50.39H30.18C28.952 50.398 27.7775 50.893 26.9149 51.767C26.0522 52.641 25.572 53.822 25.58 55.05C25.5879 56.278 26.0834 57.452 26.9573 58.315Z" fill="#4F0599"/>
<path d="M19.4573 44.763C20.32 45.625 21.49 46.11 22.71 46.11C23.9282 46.107 25.0957 45.622 25.9562 44.759C26.8167 43.897 27.3 42.728 27.3 41.51V30C27.3 29.204 27.6161 28.441 28.1787 27.879C28.7413 27.316 29.5043 27 30.3 27H36C36.609 26.997 37.212 26.874 37.773 26.638C38.335 26.401 38.844 26.056 39.272 25.622C39.699 25.188 40.037 24.674 40.265 24.109C40.493 23.5437 40.607 22.9392 40.6 22.33C40.579 21.1071 40.079 19.9412 39.208 19.0829C38.336 18.2246 37.163 17.7424 35.94 17.74H23.35C21.9538 17.9163 20.664 18.5778 19.7062 19.6088C18.7483 20.6398 18.1833 21.9746 18.11 23.38V41.51C18.11 42.73 18.5946 43.9 19.4573 44.763Z" fill="#4F0599"/>
<path fill-rule="evenodd" clip-rule="evenodd" d="M15.17 0.530015H38C41.577 0.523415 45.12 1.22192 48.427 2.58572C51.734 3.94942 54.74 5.95162 57.273 8.47772C59.805 11.0039 61.815 14.0045 63.187 17.3079C64.56 20.6113 65.267 24.153 65.27 27.73V64C64.913 67.327 63.406 70.425 61.009 72.76C58.612 75.095 55.475 76.52 52.14 76.79H28C24.4186 76.795 20.8713 76.094 17.5611 74.727C14.2509 73.36 11.2428 71.353 8.709 68.822C6.1752 66.291 4.1653 63.285 2.7945 59.977C1.4236 56.668 0.718703 53.121 0.720003 49.54V15C0.722603 11.1665 2.2453 7.49061 4.954 4.77811C7.6628 2.06561 11.3366 0.537915 15.17 0.530015ZM44.873 11.1994C42.669 10.2861 40.306 9.81732 37.92 9.82002L15.52 9.78001C14.0293 9.80101 12.6071 10.4094 11.5624 11.4729C10.5176 12.5364 9.9346 13.9691 9.94 15.46V49.37C9.9387 51.751 10.4067 54.109 11.3174 56.31C12.228 58.51 13.5634 60.509 15.2472 62.193C16.931 63.877 18.9302 65.212 21.1304 66.123C23.3306 67.033 25.6888 67.501 28.07 67.5H51.25C52.437 67.334 53.54 66.797 54.403 65.965C55.265 65.133 55.842 64.05 56.05 62.87V28C56.059 25.614 55.597 23.25 54.69 21.0434C53.782 18.8368 52.448 16.8312 50.763 15.1419C49.079 13.4525 47.077 12.1127 44.873 11.1994Z" fill="#4F0599"/>
<path d="M105 68.51C100.785 68.48 96.643 67.412 92.94 65.4C89.092 63.401 85.759 60.54 83.2 57.04C83.033 56.832 82.909 56.594 82.836 56.337C82.762 56.081 82.741 55.813 82.772 55.549C82.804 55.284 82.888 55.028 83.02 54.797C83.152 54.565 83.329 54.362 83.54 54.2L88.2 50.06C88.577 49.717 89.071 49.531 89.58 49.54H89.92C90.218 49.586 90.503 49.695 90.756 49.859C91.009 50.022 91.225 50.237 91.39 50.49C92.962 53.031 95.119 55.16 97.68 56.7C100.127 58.166 102.927 58.94 105.78 58.94C108.88 58.94 111.21 58.33 112.67 57.04C113.377 56.442 113.933 55.686 114.293 54.833C114.653 53.98 114.806 53.054 114.74 52.13C114.816 51.138 114.652 50.142 114.262 49.226C113.873 48.311 113.268 47.503 112.5 46.87C110.687 45.49 107.757 44.197 103.71 42.99C91.71 40.06 85.71 34.37 85.71 25.99C85.71 20.8201 87.43 16.7701 90.88 13.9301C94.33 11.0901 98.81 9.7901 104.5 9.7901C108.346 9.6763 112.164 10.4762 115.64 12.1242C119.117 13.7721 122.153 16.2211 124.5 19.2701C124.839 19.6991 125.002 20.2419 124.953 20.7868C124.905 21.3317 124.65 21.8375 124.24 22.2001L119.71 26C119.337 26.349 118.841 26.536 118.33 26.52H118.07C117.779 26.492 117.497 26.401 117.244 26.252C116.992 26.104 116.776 25.902 116.61 25.66C115.224 23.6412 113.398 21.9626 111.27 20.7501C109.159 19.6881 106.823 19.1529 104.46 19.1901C102.113 19.0969 99.795 19.7289 97.82 21.0001C97.109 21.5095 96.534 22.1848 96.143 22.9673C95.753 23.7498 95.56 24.616 95.58 25.49C95.535 26.373 95.699 27.255 96.058 28.063C96.418 28.871 96.963 29.583 97.65 30.14C99.29 31.52 102.22 32.64 106.35 33.67C111.96 35.23 116.35 37.29 119.54 39.97C122.9 42.9 124.63 46.97 124.63 52.12C124.646 55.159 123.743 58.133 122.04 60.65C120.306 63.205 117.877 65.211 115.04 66.43C111.899 67.889 108.462 68.601 105 68.51Z" fill="#4F0599"/>
<path d="M149.62 68.68C145.98 68.77 142.391 67.812 139.28 65.92C136.253 64.109 133.802 61.478 132.21 58.33C130.482 54.976 129.623 51.242 129.71 47.47C129.613 43.726 130.473 40.019 132.21 36.7C133.807 33.559 136.257 30.931 139.28 29.12C142.391 27.307 145.929 26.355 149.53 26.36C152.544 26.293 155.521 27.036 158.15 28.51C160.678 30.006 162.901 31.968 164.7 34.29C165.03 34.729 165.179 35.278 165.115 35.823C165.052 36.368 164.782 36.868 164.36 37.22L160.57 40.22C160.191 40.494 159.738 40.647 159.27 40.66H158.93C158.652 40.62 158.385 40.522 158.147 40.372C157.91 40.222 157.706 40.024 157.55 39.79C156.723 38.426 155.56 37.297 154.171 36.513C152.782 35.728 151.215 35.314 149.62 35.31C147.741 35.315 145.897 35.823 144.28 36.78C142.656 37.793 141.366 39.26 140.57 41C139.675 43.038 139.212 45.239 139.212 47.465C139.212 49.691 139.675 51.892 140.57 53.93C141.364 55.695 142.652 57.193 144.28 58.24C145.86 59.28 147.73 59.791 149.62 59.7C151.345 59.801 153.067 59.457 154.62 58.7C156.03 57.931 157.264 56.875 158.24 55.6C158.574 55.187 159.051 54.914 159.577 54.834C160.102 54.755 160.638 54.874 161.08 55.17L165.14 58.01C165.366 58.169 165.559 58.37 165.707 58.604C165.855 58.837 165.956 59.097 166.003 59.369C166.05 59.641 166.044 59.92 165.983 60.19C165.922 60.459 165.809 60.714 165.65 60.94C165.651 60.951 165.65 60.963 165.647 60.974C165.644 60.985 165.638 60.995 165.63 61.003C165.623 61.012 165.614 61.018 165.603 61.023C165.593 61.028 165.581 61.03 165.57 61.03C163.699 63.347 161.344 65.227 158.67 66.54C155.865 67.958 152.763 68.691 149.62 68.68Z" fill="#4F0599"/>
<path fill-rule="evenodd" clip-rule="evenodd" d="M178.173 65.994C181.236 67.824 184.752 68.755 188.32 68.68C191.148 68.719 193.939 68.038 196.43 66.7C197.21 66.23 197.98 65.75 198.76 65.23V65.32C198.768 65.866 198.989 66.387 199.376 66.772C199.762 67.156 200.284 67.375 200.83 67.38H206C206.546 67.375 207.068 67.156 207.455 66.772C207.841 66.387 208.062 65.866 208.07 65.32V29.63C208.062 29.083 207.842 28.561 207.455 28.175C207.069 27.788 206.547 27.568 206 27.56H200.82C200.273 27.568 199.751 27.788 199.365 28.175C198.978 28.561 198.758 29.083 198.75 29.63V29.81C198.002 29.21 197.194 28.687 196.34 28.25C193.795 26.989 190.99 26.342 188.15 26.36C184.608 26.292 181.118 27.227 178.084 29.056C175.049 30.886 172.594 33.536 171 36.7C169.337 40.063 168.472 43.764 168.472 47.515C168.472 51.266 169.337 54.967 171 58.33C172.624 61.508 175.11 64.164 178.173 65.994ZM182.89 36.79C184.473 35.821 186.294 35.312 188.15 35.32C190.08 35.235 191.986 35.779 193.58 36.87C195.182 37.91 196.463 39.374 197.28 41.1C198.178 43.135 198.642 45.335 198.642 47.56C198.642 49.785 198.178 51.985 197.28 54.02C196.497 55.789 195.21 57.288 193.58 58.33C191.929 59.286 190.057 59.793 188.15 59.8C186.284 59.892 184.438 59.377 182.89 58.33C181.26 57.286 179.97 55.788 179.18 54.02C178.217 51.974 177.748 49.73 177.81 47.47C177.785 45.242 178.253 43.036 179.18 41.01C180.033 39.308 181.311 37.854 182.89 36.79Z" fill="#4F0599"/>
<path d="M216.94 10.09H222.11C222.657 10.0978 223.179 10.3184 223.565 10.7049C223.952 11.0914 224.172 11.6134 224.18 12.16V65.34C224.172 65.887 223.952 66.409 223.565 66.795C223.179 67.182 222.657 67.402 222.11 67.41H216.94C216.393 67.402 215.871 67.182 215.485 66.795C215.098 66.409 214.878 65.887 214.87 65.34V12.16C214.86 11.8856 214.907 11.612 215.008 11.3564C215.108 11.1009 215.26 10.8687 215.455 10.6745C215.649 10.4803 215.881 10.3282 216.136 10.2276C216.392 10.1271 216.666 10.0802 216.94 10.09Z" fill="#4F0599"/>
<path d="M306.267 67.087C306.63 67.352 307.071 67.487 307.52 67.47L312.85 67.46C313.294 67.457 313.726 67.314 314.085 67.052C314.444 66.79 314.712 66.422 314.85 66L326.57 30.29C326.732 29.787 326.697 29.241 326.473 28.762C326.248 28.283 325.851 27.907 325.36 27.71C325.082 27.616 324.793 27.555 324.5 27.53H319.58C319.135 27.535 318.702 27.68 318.344 27.944C317.985 28.207 317.718 28.577 317.58 29L310.51 51L303.51 29C303.391 28.565 303.129 28.184 302.766 27.917C302.403 27.65 301.96 27.514 301.51 27.53H296.42C295.975 27.535 295.542 27.68 295.184 27.944C294.825 28.207 294.558 28.577 294.42 29L287.16 51.27L280 29.03C279.881 28.595 279.619 28.214 279.256 27.947C278.893 27.68 278.45 27.544 278 27.56H272.53C272.142 27.564 271.76 27.653 271.41 27.82C270.978 28.055 270.642 28.433 270.459 28.89C270.277 29.346 270.259 29.852 270.41 30.32L282.22 66.01C282.341 66.443 282.604 66.822 282.967 67.087C283.33 67.352 283.771 67.487 284.22 67.47H289.39C289.829 67.491 290.262 67.368 290.624 67.118C290.985 66.869 291.254 66.508 291.39 66.09L298.71 44.72L305.52 66.01C305.641 66.443 305.904 66.822 306.267 67.087Z" fill="#4F0599"/>
<path fill-rule="evenodd" clip-rule="evenodd" d="M347.6 68.68C344.034 68.748 340.52 67.814 337.458 65.985C334.396 64.155 331.909 61.503 330.28 58.33C328.622 54.966 327.76 51.265 327.76 47.515C327.76 43.764 328.622 40.064 330.28 36.7C331.881 33.522 334.351 30.864 337.403 29.034C340.454 27.203 343.963 26.276 347.52 26.36C350.341 26.369 353.119 27.055 355.62 28.36C356.473 28.795 357.281 29.314 358.03 29.91V29.74C358.034 29.184 358.251 28.65 358.636 28.249C359.021 27.847 359.545 27.608 360.1 27.58H365.36C365.907 27.588 366.429 27.808 366.815 28.195C367.202 28.581 367.422 29.103 367.43 29.65V65.34C367.422 65.886 367.201 66.407 366.814 66.791C366.428 67.176 365.906 67.395 365.36 67.4H360.19C359.644 67.395 359.122 67.176 358.736 66.791C358.349 66.407 358.128 65.886 358.12 65.34V65.25C357.373 65.786 356.595 66.277 355.79 66.72C353.264 68.04 350.45 68.713 347.6 68.68ZM347.52 35.32C345.664 35.312 343.843 35.821 342.26 36.79C340.679 37.852 339.4 39.306 338.55 41.01C337.578 43.021 337.104 45.237 337.17 47.47C337.111 49.731 337.584 51.975 338.55 54.02C339.34 55.788 340.63 57.286 342.26 58.33C343.808 59.376 345.654 59.892 347.52 59.8C349.4 59.804 351.247 59.296 352.86 58.33C354.49 57.286 355.78 55.788 356.57 54.02C357.468 51.985 357.932 49.785 357.932 47.56C357.932 45.335 357.468 43.135 356.57 41.1C355.774 39.357 354.484 37.887 352.86 36.87C351.299 35.78 349.422 35.236 347.52 35.32Z" fill="#4F0599"/>
<path fill-rule="evenodd" clip-rule="evenodd" d="M260.98 54.492C261.558 54.412 262.144 54.554 262.62 54.89L266.15 57.46C266.15 57.484 266.159 57.507 266.176 57.524C266.193 57.54 266.216 57.55 266.24 57.55C266.483 57.736 266.687 57.969 266.84 58.234C266.994 58.499 267.093 58.792 267.133 59.096C267.173 59.399 267.153 59.708 267.073 60.004C266.994 60.3 266.857 60.577 266.67 60.82C264.957 63.032 262.819 64.879 260.38 66.25C257.056 67.981 253.347 68.841 249.6 68.75C245.971 68.759 242.405 67.81 239.26 66C236.256 64.161 233.812 61.537 232.19 58.41C230.468 55.054 229.609 51.321 229.69 47.55C229.657 43.812 230.514 40.121 232.19 36.78C233.756 33.637 236.184 31.004 239.19 29.19C242.268 27.368 245.783 26.414 249.36 26.43C252.788 26.402 256.158 27.311 259.107 29.06C262.055 30.808 264.47 33.329 266.09 36.35C267.767 39.442 268.624 42.912 268.58 46.43C268.601 47.234 268.575 48.039 268.5 48.84C268.457 49.359 268.22 49.843 267.837 50.195C267.453 50.547 266.951 50.742 266.43 50.74H239.43C239.86 52.933 240.841 54.981 242.28 56.69C243.187 57.726 244.316 58.544 245.584 59.08C246.852 59.617 248.225 59.86 249.6 59.79C251.873 59.864 254.127 59.358 256.15 58.32C257.446 57.537 258.586 56.52 259.51 55.32C259.877 54.868 260.403 54.572 260.98 54.492ZM245.934 35.845C244.792 36.289 243.753 36.961 242.88 37.82C241.59 39.042 240.604 40.549 240 42.22H258.74C258.338 40.428 257.441 38.786 256.15 37.48C254.6 35.92 252.36 35.24 249.52 35.24C248.296 35.195 247.076 35.401 245.934 35.845Z" fill="#4F0599"/>
<path d="M409.57 28.51C409.364 28.249 409.103 28.037 408.806 27.888C408.509 27.739 408.182 27.658 407.85 27.65H402.94C402.506 27.65 402.082 27.782 401.725 28.029C401.368 28.275 401.094 28.624 400.94 29.03L390.86 55.03L381.29 28.91C381.118 28.524 380.837 28.197 380.482 27.968C380.127 27.739 379.713 27.618 379.29 27.62H373.86C373.516 27.617 373.177 27.703 372.875 27.869C372.574 28.036 372.321 28.277 372.14 28.57C371.941 28.86 371.82 29.196 371.788 29.546C371.757 29.897 371.816 30.249 371.96 30.57L386 67.64C385.77 69.01 385.03 70.242 383.93 71.09C382.641 71.949 380.144 72.04 378.763 72.09H378.76C378.183 72.118 377.639 72.366 377.239 72.782C376.84 73.199 376.614 73.753 376.61 74.33V77.86C376.607 78.155 376.664 78.447 376.775 78.72C376.887 78.993 377.052 79.241 377.26 79.45C377.469 79.658 377.717 79.823 377.99 79.935C378.263 80.046 378.555 80.103 378.85 80.1C379.014 80.1 379.187 80.101 379.366 80.102L379.491 80.103C381.659 80.118 384.799 80.14 387.3 78.89C392.324 76.237 393.514 73.02 394.857 69.392C395.033 68.918 395.211 68.438 395.4 67.95L409.79 30.37C409.878 30.061 409.904 29.737 409.866 29.418C409.829 29.099 409.728 28.79 409.57 28.51Z" fill="#4F0599"/>
</g>
<defs>
<clipPath id="clip0_1_24">
<rect width="410" height="81" fill="white"/>
</clipPath>
</defs>
</svg>
